<svg id="Layer_1" data-name="Layer 1" xmlns="http://www.w3.org/2000/svg" viewBox="0 0 157.72 53.3"><defs><style>.cls-1{fill:#fff;}</style></defs><title>memgraph-logo-white</title><polygon class="cls-1" points="81.45 34.19 85.39 10.98 91.33 10.98 96.04 23.39 101.03 10.98 107.03 10.98 110.54 34.19 104.51 34.19 102.81 20.83 102.75 20.83 97.18 34.19 94.78 34.19 89.45 20.83 89.39 20.83 87.45 34.19 81.45 34.19"/><polygon class="cls-1" points="126.34 16.09 119.17 16.09 119.17 19.97 125.97 19.97 125.97 25.07 119.17 25.07 119.17 29.08 126.34 29.08 126.34 34.19 113.13 34.19 113.13 10.98 126.34 10.98 126.34 16.09"/><polygon class="cls-1" points="128.54 34.19 132.48 10.98 138.42 10.98 143.13 23.39 148.12 10.98 154.12 10.98 157.63 34.19 151.6 34.19 149.91 20.83 149.84 20.83 144.27 34.19 141.87 34.19 136.54 20.83 136.48 20.83 134.54 34.19 128.54 34.19"/><path class="cls-1" d="M89.69,44.79h6.82a12.12,12.12,0,0,1-.3,3.21,6.38,6.38,0,0,1-1.39,2.57,7.48,7.48,0,0,1-2.73,2,8.43,8.43,0,0,1-9.27-13.74,8.25,8.25,0,0,1,6-2.49,8.37,8.37,0,0,1,6.93,3.54l-1.33,1.24A6.64,6.64,0,0,0,88.84,38a6.37,6.37,0,0,0-4.74,2,6.7,6.7,0,0,0-1.95,4.82,6.41,6.41,0,0,0,1.91,4.63A7.62,7.62,0,0,0,86.23,51a5.87,5.87,0,0,0,2.48.58,6.24,6.24,0,0,0,4-1.47,4.52,4.52,0,0,0,1.8-3.66H89.69Z"/><path class="cls-1" d="M103,45.82V53h-1.82V36.64h2.37a11.5,11.5,0,0,1,2.26.19,6.59,6.59,0,0,1,1.89.67,3.29,3.29,0,0,1,1.37,1.41,4.87,4.87,0,0,1,.48,2.25,4.52,4.52,0,0,1-1.11,3.13,4.3,4.3,0,0,1-3,1.39L110.67,53h-2.23l-5-7.2Zm0-7.5v5.89h.56a9.43,9.43,0,0,0,1.53-.11,5.13,5.13,0,0,0,1.3-.4,2,2,0,0,0,1-.9,3.05,3.05,0,0,0,.34-1.51,3.33,3.33,0,0,0-.24-1.34,2.52,2.52,0,0,0-.59-.87,2.36,2.36,0,0,0-.93-.48,5,5,0,0,0-1.12-.22c-.36,0-.78,0-1.29,0Z"/><path class="cls-1" d="M125,48.37h-7l-2,4.65h-2l7.56-17.17L129,53h-2Zm-.72-1.7-2.74-6.57-2.8,6.57Z"/><path class="cls-1" d="M134.69,45.85V53h-1.82V36.64h2.69a15,15,0,0,1,2.31.15,4.16,4.16,0,0,1,1.76.72A4.21,4.21,0,0,1,141,39.12a4.84,4.84,0,0,1,.48,2.12,4.34,4.34,0,0,1-1.56,3.52A6,6,0,0,1,136,45.85Zm0-7.52v5.83h1.22q3.74,0,3.74-3a3.16,3.16,0,0,0-.25-1.33,2.2,2.2,0,0,0-.64-.84,2.72,2.72,0,0,0-1-.45,5.74,5.74,0,0,0-1.13-.21c-.34,0-.77,0-1.28,0Z"/><polygon class="cls-1" points="147.5 43.29 155.89 43.29 155.89 36.64 157.72 36.64 157.72 53.02 155.89 53.02 155.89 44.98 147.5 44.98 147.5 53.02 145.68 53.02 145.68 36.64 147.5 36.64 147.5 43.29"/><path class="cls-1" d="M5.61,53.3a5.61,5.61,0,1,1,5.62-5.62A5.62,5.62,0,0,1,5.61,53.3"/><path class="cls-1" d="M5.65,53a5.56,5.56,0,1,1,5.59-5.53A5.56,5.56,0,0,1,5.65,53"/><path class="cls-1" d="M5.69,52.78a5.51,5.51,0,1,1,5.56-5.45,5.51,5.51,0,0,1-5.56,5.45"/><path class="cls-1" d="M5.72,52.52a5.45,5.45,0,1,1,5.53-5.37,5.45,5.45,0,0,1-5.53,5.37"/><path class="cls-1" d="M5.75,52.26a5.4,5.4,0,1,1,5.5-5.3,5.41,5.41,0,0,1-5.5,5.3"/><path class="cls-1" d="M5.79,52a5.35,5.35,0,1,1,5.47-5.22A5.36,5.36,0,0,1,5.79,52"/><path class="cls-1" d="M5.82,51.74a5.29,5.29,0,1,1,5.45-5.14,5.29,5.29,0,0,1-5.45,5.14"/><path class="cls-1" d="M5.86,51.48a5.24,5.24,0,1,1,5.41-5.06,5.23,5.23,0,0,1-5.41,5.06"/><path class="cls-1" d="M5.9,51.22a5.19,5.19,0,1,1,5.39-5,5.18,5.18,0,0,1-5.39,5"/><path class="cls-1" d="M5.93,51a5.13,5.13,0,1,1,5.36-4.9A5.13,5.13,0,0,1,5.93,51"/><path class="cls-1" d="M6,50.7a5.08,5.08,0,1,1,5.33-4.82A5.08,5.08,0,0,1,6,50.7"/><path class="cls-1" d="M6,50.44A5,5,0,1,1,11.3,45.7,5,5,0,0,1,6,50.44"/><path class="cls-1" d="M6,50.18a5,5,0,1,1,5.27-4.66A5,5,0,0,1,6,50.18"/><path class="cls-1" d="M6.07,49.92a4.92,4.92,0,1,1,5.24-4.58,4.92,4.92,0,0,1-5.24,4.58"/><path class="cls-1" d="M6.1,49.67a4.87,4.87,0,1,1,5.21-4.5,4.88,4.88,0,0,1-5.21,4.5"/><path class="cls-1" d="M6.14,49.4A4.82,4.82,0,1,1,11.32,45,4.82,4.82,0,0,1,6.14,49.4"/><path class="cls-1" d="M6.17,49.14a4.77,4.77,0,1,1,5.16-4.34,4.77,4.77,0,0,1-5.16,4.34"/><path class="cls-1" d="M6.2,48.88a4.72,4.72,0,1,1,5.13-4.26A4.72,4.72,0,0,1,6.2,48.88"/><path class="cls-1" d="M6.25,48.62a4.66,4.66,0,1,1,5.1-4.18,4.67,4.67,0,0,1-5.1,4.18"/><path class="cls-1" d="M6.28,48.36a4.62,4.62,0,1,1,5.07-4.11,4.62,4.62,0,0,1-5.07,4.11"/><path class="cls-1" d="M6.31,48.1a4.56,4.56,0,1,1,5-4,4.56,4.56,0,0,1-5,4"/><path class="cls-1" d="M6.34,47.84a4.51,4.51,0,1,1,5-3.95,4.52,4.52,0,0,1-5,3.95"/><path class="cls-1" d="M6.38,47.58a4.46,4.46,0,1,1,5-3.87,4.46,4.46,0,0,1-5,3.87"/><path class="cls-1" d="M6.42,47.32a4.41,4.41,0,1,1,5-3.79,4.4,4.4,0,0,1-5,3.79"/><path class="cls-1" d="M6.45,47.06a4.36,4.36,0,1,1,4.93-3.71,4.37,4.37,0,0,1-4.93,3.71"/><path class="cls-1" d="M6.49,46.8a4.31,4.31,0,1,1,4.91-3.63A4.31,4.31,0,0,1,6.49,46.8"/><path class="cls-1" d="M6.52,46.54A4.26,4.26,0,1,1,11.4,43a4.26,4.26,0,0,1-4.88,3.55"/><path class="cls-1" d="M6.55,46.28a4.21,4.21,0,1,1,4.85-3.47,4.21,4.21,0,0,1-4.85,3.47"/><path class="cls-1" d="M6.59,46a4.16,4.16,0,1,1,4.82-3.38A4.16,4.16,0,0,1,6.59,46"/><path class="cls-1" d="M6.63,45.76a4.11,4.11,0,1,1,4.78-3.3,4.1,4.1,0,0,1-4.78,3.3"/><path class="cls-1" d="M6.66,45.5a4.07,4.07,0,1,1,4.76-3.23A4.07,4.07,0,0,1,6.66,45.5"/><path class="cls-1" d="M6.69,45.24a4,4,0,1,1,4.73-3.15,4,4,0,0,1-4.73,3.15"/><path class="cls-1" d="M6.73,45a4,4,0,1,1,4.7-3.07A4,4,0,0,1,6.73,45"/><path class="cls-1" d="M6.76,44.72a3.92,3.92,0,1,1,4.68-3,3.92,3.92,0,0,1-4.68,3"/><path class="cls-1" d="M6.8,44.46a3.87,3.87,0,1,1,4.64-2.91A3.87,3.87,0,0,1,6.8,44.46"/><path class="cls-1" d="M6.83,44.2a3.83,3.83,0,1,1,4.62-2.83A3.84,3.84,0,0,1,6.83,44.2"/><path class="cls-1" d="M6.87,43.94a3.79,3.79,0,1,1,4.59-2.75,3.79,3.79,0,0,1-4.59,2.75"/><path class="cls-1" d="M6.9,43.68A3.74,3.74,0,1,1,11.46,41,3.74,3.74,0,0,1,6.9,43.68"/><path class="cls-1" d="M6.93,43.42a3.69,3.69,0,1,1,4.54-2.59,3.69,3.69,0,0,1-4.54,2.59"/><path class="cls-1" d="M7,43.16a3.65,3.65,0,1,1,4.51-2.51A3.64,3.64,0,0,1,7,43.16"/><path class="cls-1" d="M7,42.9a3.6,3.6,0,1,1,4.48-2.44A3.61,3.61,0,0,1,7,42.9"/><path class="cls-1" d="M7,42.64a3.56,3.56,0,1,1,4.44-2.35A3.56,3.56,0,0,1,7,42.64"/><path class="cls-1" d="M7.08,42.38a3.51,3.51,0,1,1,4.42-2.27,3.5,3.5,0,0,1-4.42,2.27"/><path class="cls-1" d="M7.11,42.12a3.47,3.47,0,1,1,4.39-2.19,3.46,3.46,0,0,1-4.39,2.19"/><path class="cls-1" d="M7.14,41.86a3.43,3.43,0,1,1,4.36-2.11,3.42,3.42,0,0,1-4.36,2.11"/><path class="cls-1" d="M7.18,41.6a3.38,3.38,0,1,1,4.33-2,3.38,3.38,0,0,1-4.33,2"/><path class="cls-1" d="M7.22,41.34a3.34,3.34,0,1,1,4.3-2,3.34,3.34,0,0,1-4.3,2"/><path class="cls-1" d="M7.25,41.08a3.3,3.3,0,1,1,4.27-1.88,3.3,3.3,0,0,1-4.27,1.88"/><path class="cls-1" d="M7.28,40.82A3.26,3.26,0,1,1,11.53,39a3.26,3.26,0,0,1-4.25,1.8"/><path class="cls-1" d="M7.32,40.56a3.22,3.22,0,1,1,4.22-1.72,3.22,3.22,0,0,1-4.22,1.72"/><path class="cls-1" d="M7.36,40.3a3.18,3.18,0,1,1,4.19-1.64A3.19,3.19,0,0,1,7.36,40.3"/><path class="cls-1" d="M7.39,40a3.14,3.14,0,1,1,4.16-1.56A3.14,3.14,0,0,1,7.39,40"/><path class="cls-1" d="M7.42,39.78a3.11,3.11,0,1,1,4.13-1.48,3.11,3.11,0,0,1-4.13,1.48"/><path class="cls-1" d="M7.46,39.52a3.07,3.07,0,1,1,4.11-1.4,3.07,3.07,0,0,1-4.11,1.4"/><path class="cls-1" d="M7.49,39.26a3,3,0,1,1,4.08-1.31,3,3,0,0,1-4.08,1.31"/><path class="cls-1" d="M7.52,39a3,3,0,1,1,4.05-1.24A3,3,0,0,1,7.52,39"/><path class="cls-1" d="M7.56,38.74a3,3,0,1,1,4-1.16,3,3,0,0,1-4,1.16"/><path class="cls-1" d="M7.6,38.48a2.92,2.92,0,1,1,4-1.08,2.91,2.91,0,0,1-4,1.08"/><path class="cls-1" d="M7.63,38.22a2.89,2.89,0,1,1,4-1,2.88,2.88,0,0,1-4,1"/><path class="cls-1" d="M7.67,38A2.86,2.86,0,1,1,11.6,37,2.86,2.86,0,0,1,7.67,38"/><path class="cls-1" d="M7.7,37.7a2.83,2.83,0,1,1,3.91-.84,2.83,2.83,0,0,1-3.91.84"/><path class="cls-1" d="M7.74,37.44a2.79,2.79,0,1,1,3.87-.77,2.79,2.79,0,0,1-3.87.77"/><path class="cls-1" d="M7.77,37.18a2.76,2.76,0,1,1,3.85-.68,2.76,2.76,0,0,1-3.85.68"/><path class="cls-1" d="M7.81,36.92a2.73,2.73,0,1,1,3.82-.6,2.73,2.73,0,0,1-3.82.6"/><path class="cls-1" d="M7.84,36.66a2.71,2.71,0,1,1,3.79-.52,2.7,2.7,0,0,1-3.79.52"/><path class="cls-1" d="M7.87,36.4A2.68,2.68,0,1,1,11.64,36a2.68,2.68,0,0,1-3.77.45"/><path class="cls-1" d="M7.91,36.14a2.65,2.65,0,1,1,3.73-.37,2.65,2.65,0,0,1-3.73.37"/><path class="cls-1" d="M7.95,35.88a2.63,2.63,0,1,1,3.7-.29,2.62,2.62,0,0,1-3.7.29"/><path class="cls-1" d="M8,35.62a2.6,2.6,0,1,1,3.68-.21A2.61,2.61,0,0,1,8,35.62"/><path class="cls-1" d="M8,35.36a2.58,2.58,0,1,1,3.65-.13A2.57,2.57,0,0,1,8,35.36"/><path class="cls-1" d="M8,35.1a2.56,2.56,0,1,1,3.62,0A2.57,2.57,0,0,1,8,35.1"/><path class="cls-1" d="M8.08,34.84a2.54,2.54,0,1,1,3.6,0,2.55,2.55,0,0,1-3.6,0"/><path class="cls-1" d="M8.12,34.58a2.52,2.52,0,1,1,3.56.11,2.52,2.52,0,0,1-3.56-.11"/><path class="cls-1" d="M8.15,34.32a2.5,2.5,0,1,1,3.53.2,2.5,2.5,0,0,1-3.53-.2"/><path class="cls-1" d="M8.19,34.06a2.49,2.49,0,1,1,3.5.27,2.49,2.49,0,0,1-3.5-.27"/><path class="cls-1" d="M8.22,33.81a2.47,2.47,0,1,1,3.48.35,2.48,2.48,0,0,1-3.48-.35"/><path class="cls-1" d="M8.25,33.54A2.46,2.46,0,1,1,11.7,34a2.46,2.46,0,0,1-3.45-.43"/><path class="cls-1" d="M8.3,33.28a2.44,2.44,0,1,1,3.42.51,2.44,2.44,0,0,1-3.42-.51"/><path class="cls-1" d="M8.33,33a2.43,2.43,0,1,1,3.39.59A2.43,2.43,0,0,1,8.33,33"/><path class="cls-1" d="M8.36,32.76a2.43,2.43,0,1,1,3.36.67,2.43,2.43,0,0,1-3.36-.67"/><path class="cls-1" d="M8.4,32.51a2.42,2.42,0,1,1,3.34.74,2.42,2.42,0,0,1-3.34-.74"/><path class="cls-1" d="M8.43,32.24a2.41,2.41,0,1,1,3.31.83,2.41,2.41,0,0,1-3.31-.83"/><path class="cls-1" d="M8.46,32a2.41,2.41,0,1,1,3.28.9A2.4,2.4,0,0,1,8.46,32"/><path class="cls-1" d="M8.5,31.72a2.4,2.4,0,1,1,3.25,1,2.4,2.4,0,0,1-3.25-1"/><path class="cls-1" d="M8.54,31.46a2.4,2.4,0,1,1,3.22,1.07,2.39,2.39,0,0,1-3.22-1.07"/><path class="cls-1" d="M8.57,31.21a2.4,2.4,0,1,1,3.19,1.15,2.4,2.4,0,0,1-3.19-1.15"/><path class="cls-1" d="M8.6,30.94a2.4,2.4,0,1,1,3.17,1.22A2.4,2.4,0,0,1,8.6,30.94"/><path class="cls-1" d="M8.64,30.68A2.4,2.4,0,1,1,11.77,32a2.41,2.41,0,0,1-3.14-1.31"/><path class="cls-1" d="M8.68,30.42a2.4,2.4,0,1,1,3.1,1.39,2.4,2.4,0,0,1-3.1-1.39"/><path class="cls-1" d="M8.71,30.16a2.41,2.41,0,1,1,3.08,1.47,2.4,2.4,0,0,1-3.08-1.47"/><path class="cls-1" d="M8.74,29.91a2.42,2.42,0,1,1,3,1.54,2.42,2.42,0,0,1-3-1.54"/><path class="cls-1" d="M8.78,29.64a2.43,2.43,0,1,1,3,1.62,2.43,2.43,0,0,1-3-1.62"/><path class="cls-1" d="M8.81,29.38a2.44,2.44,0,1,1,3,1.7,2.44,2.44,0,0,1-3-1.7"/><path class="cls-1" d="M8.85,29.12a2.44,2.44,0,1,1,3,1.78,2.44,2.44,0,0,1-3-1.78"/><path class="cls-1" d="M8.89,28.86a2.46,2.46,0,1,1,2.93,1.86,2.45,2.45,0,0,1-2.93-1.86"/><path class="cls-1" d="M8.92,28.61a2.47,2.47,0,1,1,2.91,1.94,2.47,2.47,0,0,1-2.91-1.94"/><path class="cls-1" d="M9,28.34a2.49,2.49,0,1,1,2.88,2,2.49,2.49,0,0,1-2.88-2"/><path class="cls-1" d="M9,28.08a2.5,2.5,0,1,1,2.85,2.1A2.51,2.51,0,0,1,9,28.08"/><path class="cls-1" d="M9,27.82A2.52,2.52,0,1,1,11.85,30,2.52,2.52,0,0,1,9,27.82"/><path class="cls-1" d="M9.06,27.56a2.54,2.54,0,1,1,2.79,2.26,2.54,2.54,0,0,1-2.79-2.26"/><path class="cls-1" d="M9.09,27.3a2.56,2.56,0,1,1,2.77,2.34A2.56,2.56,0,0,1,9.09,27.3"/><path class="cls-1" d="M9.13,27a2.58,2.58,0,1,1,2.73,2.42A2.59,2.59,0,0,1,9.13,27"/><path class="cls-1" d="M9.16,26.78a2.6,2.6,0,1,1,2.71,2.5,2.6,2.6,0,0,1-2.71-2.5"/><path class="cls-1" d="M9.19,26.52a2.63,2.63,0,1,1,2.68,2.58,2.64,2.64,0,0,1-2.68-2.58"/><path class="cls-1" d="M9.23,26.26a2.65,2.65,0,1,1,2.65,2.66,2.65,2.65,0,0,1-2.65-2.66"/><path class="cls-1" d="M9.27,26a2.68,2.68,0,1,1,2.62,2.73A2.68,2.68,0,0,1,9.27,26"/><path class="cls-1" d="M9.3,25.74a2.71,2.71,0,1,1,2.59,2.81A2.7,2.7,0,0,1,9.3,25.74"/><path class="cls-1" d="M9.33,25.48a2.74,2.74,0,1,1,2.57,2.89,2.74,2.74,0,0,1-2.57-2.89"/><path class="cls-1" d="M9.37,25.22a2.77,2.77,0,1,1,2.54,3,2.76,2.76,0,0,1-2.54-3"/><path class="cls-1" d="M9.41,25A2.79,2.79,0,1,1,11.91,28,2.79,2.79,0,0,1,9.41,25"/><path class="cls-1" d="M9.44,24.71a2.83,2.83,0,1,1,2.48,3.14,2.83,2.83,0,0,1-2.48-3.14"/><path class="cls-1" d="M9.47,24.44a2.86,2.86,0,1,1,2.45,3.22,2.85,2.85,0,0,1-2.45-3.22"/><path class="cls-1" d="M9.51,24.18a2.89,2.89,0,1,1,2.43,3.29,2.89,2.89,0,0,1-2.43-3.29"/><path class="cls-1" d="M9.54,23.92a2.93,2.93,0,1,1,2.4,3.38,2.93,2.93,0,0,1-2.4-3.38"/><path class="cls-1" d="M9.57,23.66a3,3,0,1,1,2.37,3.46,3,3,0,0,1-2.37-3.46"/><path class="cls-1" d="M9.61,23.41A3,3,0,1,1,12,26.94a3,3,0,0,1-2.34-3.53"/><path class="cls-1" d="M9.65,23.15A3,3,0,1,1,12,26.76a3,3,0,0,1-2.31-3.61"/><path class="cls-1" d="M9.68,22.88A3.07,3.07,0,1,1,12,26.58a3.06,3.06,0,0,1-2.28-3.69"/><path class="cls-1" d="M9.72,22.62A3.11,3.11,0,1,1,12,26.39a3.11,3.11,0,0,1-2.25-3.77"/><path class="cls-1" d="M9.75,22.36A3.15,3.15,0,1,1,12,26.21a3.14,3.14,0,0,1-2.22-3.85"/><path class="cls-1" d="M9.79,22.11A3.18,3.18,0,1,1,12,26a3.18,3.18,0,0,1-2.19-3.93"/><path class="cls-1" d="M9.82,21.85a3.22,3.22,0,1,1,2.16,4,3.22,3.22,0,0,1-2.16-4"/><path class="cls-1" d="M9.86,21.58A3.26,3.26,0,1,1,12,25.67a3.26,3.26,0,0,1-2.14-4.09"/><path class="cls-1" d="M9.89,21.32A3.3,3.3,0,1,1,12,25.49a3.31,3.31,0,0,1-2.11-4.17"/><path class="cls-1" d="M9.92,21.06A3.35,3.35,0,1,1,12,25.31a3.34,3.34,0,0,1-2.08-4.25"/><path class="cls-1" d="M10,20.81a3.39,3.39,0,1,1,2,4.32,3.38,3.38,0,0,1-2-4.32"/><path class="cls-1" d="M10,20.55A3.43,3.43,0,1,1,12,25a3.42,3.42,0,0,1-2-4.41"/><path class="cls-1" d="M10,20.28a3.47,3.47,0,1,1,2,4.49,3.48,3.48,0,0,1-2-4.49"/><path class="cls-1" d="M10.06,20a3.52,3.52,0,1,1,2,4.57,3.52,3.52,0,0,1-2-4.57"/><path class="cls-1" d="M10.1,19.76A3.56,3.56,0,1,1,12,24.41a3.56,3.56,0,0,1-1.94-4.65"/><path class="cls-1" d="M10.13,19.51A3.61,3.61,0,1,1,12,24.23a3.6,3.6,0,0,1-1.91-4.72"/><path class="cls-1" d="M10.17,19.24A3.65,3.65,0,1,1,12,24a3.64,3.64,0,0,1-1.87-4.8"/><path class="cls-1" d="M10.2,19a3.69,3.69,0,1,1,1.85,4.89A3.7,3.7,0,0,1,10.2,19"/><path class="cls-1" d="M10.24,18.72a3.74,3.74,0,1,1,1.82,5,3.74,3.74,0,0,1-1.82-5"/><path class="cls-1" d="M10.27,18.46a3.79,3.79,0,1,1,1.8,5,3.79,3.79,0,0,1-1.8-5"/><path class="cls-1" d="M10.31,18.21a3.83,3.83,0,1,1,1.77,5.12,3.83,3.83,0,0,1-1.77-5.12"/><path class="cls-1" d="M10.34,17.94a3.88,3.88,0,1,1,1.74,5.2,3.88,3.88,0,0,1-1.74-5.2"/><path class="cls-1" d="M10.38,17.68A3.92,3.92,0,1,1,12.09,23a3.92,3.92,0,0,1-1.71-5.28"/><path class="cls-1" d="M10.41,17.42a4,4,0,1,1,1.68,5.36,4,4,0,0,1-1.68-5.36"/><path class="cls-1" d="M10.45,17.16A4,4,0,1,1,12.1,22.6a4,4,0,0,1-1.66-5.44"/><path class="cls-1" d="M10.48,16.91a4.07,4.07,0,1,1,1.63,5.52,4.07,4.07,0,0,1-1.63-5.52"/><path class="cls-1" d="M10.51,16.65a4.12,4.12,0,1,1,1.6,5.6,4.13,4.13,0,0,1-1.6-5.6"/><path class="cls-1" d="M10.55,16.38a4.17,4.17,0,1,1,1.57,5.68,4.16,4.16,0,0,1-1.57-5.68"/><path class="cls-1" d="M10.59,16.12a4.21,4.21,0,1,1,1.53,5.76,4.21,4.21,0,0,1-1.53-5.76"/><path class="cls-1" d="M10.62,15.86a4.27,4.27,0,1,1,1.51,5.84,4.26,4.26,0,0,1-1.51-5.84"/><path class="cls-1" d="M10.65,15.6a4.32,4.32,0,1,1,1.48,5.92,4.33,4.33,0,0,1-1.48-5.92"/><path class="cls-1" d="M10.69,15.35a4.37,4.37,0,1,1,1.45,6,4.37,4.37,0,0,1-1.45-6"/><path class="cls-1" d="M10.73,15.08a4.41,4.41,0,1,1,1.42,6.08,4.41,4.41,0,0,1-1.42-6.08"/><path class="cls-1" d="M10.76,14.82A4.46,4.46,0,1,1,12.15,21a4.46,4.46,0,0,1-1.39-6.16"/><path class="cls-1" d="M10.79,14.56a4.52,4.52,0,1,1,1.37,6.24,4.52,4.52,0,0,1-1.37-6.24"/><path class="cls-1" d="M10.83,14.3a4.57,4.57,0,1,1,1.34,6.32,4.57,4.57,0,0,1-1.34-6.32"/><path class="cls-1" d="M10.86,14a4.62,4.62,0,1,1,1.31,6.39A4.62,4.62,0,0,1,10.86,14"/><path class="cls-1" d="M10.9,13.79a4.67,4.67,0,1,1,1.28,6.47,4.66,4.66,0,0,1-1.28-6.47"/><path class="cls-1" d="M10.93,13.52a4.72,4.72,0,1,1,1.25,6.56,4.71,4.71,0,0,1-1.25-6.56"/><path class="cls-1" d="M11,13.26a4.77,4.77,0,1,1,1.22,6.63A4.77,4.77,0,0,1,11,13.26"/><path class="cls-1" d="M11,13a4.82,4.82,0,1,1,1.2,6.71A4.82,4.82,0,0,1,11,13"/><path class="cls-1" d="M11,12.75a4.88,4.88,0,1,1,1.17,6.79A4.87,4.87,0,0,1,11,12.75"/><path class="cls-1" d="M11.07,12.49a4.93,4.93,0,1,1,1.15,6.87,4.93,4.93,0,0,1-1.15-6.87"/><path class="cls-1" d="M11.11,12.22a5,5,0,1,1,1.11,7,5,5,0,0,1-1.11-7"/><path class="cls-1" d="M11.14,12a5,5,0,1,1,1.08,7,5,5,0,0,1-1.08-7"/><path class="cls-1" d="M11.18,11.7a5.08,5.08,0,1,1,1.05,7.11,5.08,5.08,0,0,1-1.05-7.11"/><path class="cls-1" d="M11.21,11.45a5.14,5.14,0,1,1,1,7.19,5.13,5.13,0,0,1-1-7.19"/><path class="cls-1" d="M11.24,11.18a5.19,5.19,0,1,1,1,7.27,5.19,5.19,0,0,1-1-7.27"/><path class="cls-1" d="M11.28,10.92a5.24,5.24,0,1,1,1,7.35,5.25,5.25,0,0,1-1-7.35"/><path class="cls-1" d="M11.32,10.66a5.3,5.3,0,1,1,.94,7.43,5.29,5.29,0,0,1-.94-7.43"/><path class="cls-1" d="M11.35,10.4a5.35,5.35,0,1,1,.91,7.51,5.35,5.35,0,0,1-.91-7.51"/><path class="cls-1" d="M11.38,10.15a5.4,5.4,0,1,1,.88,7.58,5.39,5.39,0,0,1-.88-7.58"/><path class="cls-1" d="M11.42,9.88a5.46,5.46,0,1,1,.86,7.67,5.47,5.47,0,0,1-.86-7.67"/><path class="cls-1" d="M11.46,9.62a5.51,5.51,0,1,1,.82,7.74,5.51,5.51,0,0,1-.82-7.74"/><path class="cls-1" d="M11.49,9.36a5.56,5.56,0,1,1,.8,7.83,5.56,5.56,0,0,1-.8-7.83"/><path class="cls-1" d="M11.52,9.1A5.62,5.62,0,1,1,12.3,17a5.61,5.61,0,0,1-.77-7.91"/><path class="cls-1" d="M11.56,8.85a5.67,5.67,0,1,1,.74,8,5.67,5.67,0,0,1-.74-8"/><path class="cls-1" d="M11.59,8.58a5.72,5.72,0,1,1,.71,8.07,5.73,5.73,0,0,1-.71-8.07"/><path class="cls-1" d="M11.62,8.32a5.78,5.78,0,1,1,.69,8.15,5.78,5.78,0,0,1-.69-8.15"/><path class="cls-1" d="M11.67,8.06a5.83,5.83,0,1,1,.65,8.23,5.83,5.83,0,0,1-.65-8.23"/><path class="cls-1" d="M11.7,7.8a5.89,5.89,0,1,1,.63,8.31A5.88,5.88,0,0,1,11.7,7.8"/><path class="cls-1" d="M11.73,7.55a5.94,5.94,0,1,1,.6,8.38,5.94,5.94,0,0,1-.6-8.38"/><path class="cls-1" d="M11.77,7.29a6,6,0,1,1,.57,8.46,6,6,0,0,1-.57-8.46"/><path class="cls-1" d="M11.8,7a6.05,6.05,0,1,1,.54,8.54A6.06,6.06,0,0,1,11.8,7"/><path class="cls-1" d="M11.84,6.76a6.11,6.11,0,1,1,.51,8.62,6.1,6.1,0,0,1-.51-8.62"/><path class="cls-1" d="M11.87,6.5a6.16,6.16,0,1,1,.48,8.7,6.17,6.17,0,0,1-.48-8.7"/><path class="cls-1" d="M11.91,6.25A6.22,6.22,0,1,1,12.36,15a6.22,6.22,0,0,1-.46-8.78"/><path class="cls-1" d="M11.94,6a6.28,6.28,0,1,1,.43,8.86A6.27,6.27,0,0,1,11.94,6"/><path class="cls-1" d="M12,5.72a6.33,6.33,0,1,1,.4,8.95A6.33,6.33,0,0,1,12,5.72"/><path class="cls-1" d="M12,5.46a6.39,6.39,0,1,1,.38,9,6.39,6.39,0,0,1-.38-9"/><path class="cls-1" d="M12,5.2a6.44,6.44,0,1,1,.34,9.1A6.44,6.44,0,0,1,12,5.2"/><path class="cls-1" d="M12.08,4.95a6.49,6.49,0,1,1,.32,9.18,6.49,6.49,0,0,1-.32-9.18"/><path class="cls-1" d="M12.11,4.69a6.55,6.55,0,1,1,.29,9.26,6.55,6.55,0,0,1-.29-9.26"/><path class="cls-1" d="M12.15,4.42a6.61,6.61,0,1,1,.26,9.34,6.61,6.61,0,0,1-.26-9.34"/><path class="cls-1" d="M12.18,4.16a6.66,6.66,0,1,1,.23,9.42,6.67,6.67,0,0,1-.23-9.42"/><path class="cls-1" d="M12.22,3.9a6.72,6.72,0,1,1,.19,9.5,6.71,6.71,0,0,1-.19-9.5"/><path class="cls-1" d="M12.26,3.65a6.77,6.77,0,1,1,.17,9.58,6.77,6.77,0,0,1-.17-9.58"/><path class="cls-1" d="M12.29,3.39A6.83,6.83,0,1,1,12.43,13a6.82,6.82,0,0,1-.14-9.66"/><path class="cls-1" d="M12.32,3.12a6.88,6.88,0,1,1,.11,9.74,6.88,6.88,0,0,1-.11-9.74"/><path class="cls-1" d="M12.36,2.86a6.94,6.94,0,1,1,.09,9.82,6.95,6.95,0,0,1-.09-9.82"/><path class="cls-1" d="M12.4,2.6a7,7,0,1,1,.05,9.9,7,7,0,0,1-.05-9.9"/><path class="cls-1" d="M12.43,2.35a7.05,7.05,0,1,1,0,10,7,7,0,0,1,0-10"/><path class="cls-1" d="M22.52,12.14a7.11,7.11,0,1,1,0-10.06,7.12,7.12,0,0,1,0,10.06"/><path class="cls-1" d="M12.8,2.63a7,7,0,1,1-.07,9.86,7,7,0,0,1,.07-9.86"/><path class="cls-1" d="M13.15,3.17A6.83,6.83,0,1,1,13,12.83a6.84,6.84,0,0,1,.15-9.66"/><path class="cls-1" d="M13.5,3.71a6.7,6.7,0,1,1-.23,9.47,6.7,6.7,0,0,1,.23-9.47"/><path class="cls-1" d="M13.84,4.26a6.56,6.56,0,1,1-.3,9.27,6.56,6.56,0,0,1,.3-9.27"/><path class="cls-1" d="M14.19,4.8a6.42,6.42,0,1,1-.37,9.08,6.43,6.43,0,0,1,.37-9.08"/><path class="cls-1" d="M14.53,5.34a6.29,6.29,0,1,1-.44,8.88,6.29,6.29,0,0,1,.44-8.88"/><path class="cls-1" d="M14.88,5.88a6.15,6.15,0,1,1-.52,8.69,6.15,6.15,0,0,1,.52-8.69"/><path class="cls-1" d="M15.22,6.43a6,6,0,1,1-.59,8.49,6,6,0,0,1,.59-8.49"/><path class="cls-1" d="M15.57,7a5.89,5.89,0,1,1-.67,8.3A5.88,5.88,0,0,1,15.57,7"/><path class="cls-1" d="M15.92,7.51a5.75,5.75,0,1,1-.74,8.1,5.75,5.75,0,0,1,.74-8.1"/><path class="cls-1" d="M16.26,8.06A5.62,5.62,0,1,1,15.44,16a5.62,5.62,0,0,1,.82-7.91"/><path class="cls-1" d="M16.61,8.6a5.49,5.49,0,1,1-.89,7.71,5.49,5.49,0,0,1,.89-7.71"/><path class="cls-1" d="M17,9.14a5.36,5.36,0,1,1-1,7.52,5.36,5.36,0,0,1,1-7.52"/><path class="cls-1" d="M17.3,9.68a5.23,5.23,0,1,1-1,7.32,5.23,5.23,0,0,1,1-7.32"/><path class="cls-1" d="M17.64,10.23a5.1,5.1,0,1,1-1.11,7.13,5.11,5.11,0,0,1,1.11-7.13"/><path class="cls-1" d="M18,10.77A5,5,0,1,1,16.8,17.7,5,5,0,0,1,18,10.77"/><path class="cls-1" d="M18.34,11.31A4.84,4.84,0,1,1,17.07,18a4.85,4.85,0,0,1,1.27-6.73"/><path class="cls-1" d="M18.68,11.86a4.72,4.72,0,1,1-1.33,6.54,4.72,4.72,0,0,1,1.33-6.54"/><path class="cls-1" d="M19,12.4a4.59,4.59,0,1,1-1.41,6.34A4.59,4.59,0,0,1,19,12.4"/><path class="cls-1" d="M19.37,12.94a4.47,4.47,0,1,1-1.48,6.15,4.47,4.47,0,0,1,1.48-6.15"/><path class="cls-1" d="M19.72,13.48a4.35,4.35,0,1,1-1.56,6,4.35,4.35,0,0,1,1.56-6"/><path class="cls-1" d="M20.06,14a4.23,4.23,0,1,1-1.63,5.76A4.24,4.24,0,0,1,20.06,14"/><path class="cls-1" d="M20.41,14.57a4.11,4.11,0,1,1-1.71,5.57,4.12,4.12,0,0,1,1.71-5.57"/><path class="cls-1" d="M20.75,15.11A4,4,0,1,1,19,20.48a4,4,0,0,1,1.78-5.37"/><path class="cls-1" d="M21.1,15.65a3.89,3.89,0,1,1-1.86,5.17,3.89,3.89,0,0,1,1.86-5.17"/><path class="cls-1" d="M21.45,16.2a3.77,3.77,0,1,1-1.93,5,3.78,3.78,0,0,1,1.93-5"/><path class="cls-1" d="M21.79,16.74a3.67,3.67,0,1,1-2,4.78,3.68,3.68,0,0,1,2-4.78"/><path class="cls-1" d="M22.14,17.28a3.56,3.56,0,1,1-2.08,4.59,3.56,3.56,0,0,1,2.08-4.59"/><path class="cls-1" d="M22.48,17.82a3.46,3.46,0,1,1-2.15,4.4,3.47,3.47,0,0,1,2.15-4.4"/><path class="cls-1" d="M22.83,18.37a3.36,3.36,0,1,1-2.22,4.2,3.36,3.36,0,0,1,2.22-4.2"/><path class="cls-1" d="M23.17,18.91a3.27,3.27,0,1,1-2.3,4,3.26,3.26,0,0,1,2.3-4"/><path class="cls-1" d="M23.52,19.46a3.17,3.17,0,1,1-2.37,3.8,3.17,3.17,0,0,1,2.37-3.8"/><path class="cls-1" d="M23.87,20a3.08,3.08,0,1,1-2.45,3.6A3.08,3.08,0,0,1,23.87,20"/><path class="cls-1" d="M24.21,20.55A3,3,0,1,1,21.68,24a3,3,0,0,1,2.52-3.41"/><path class="cls-1" d="M24.56,21.09A2.92,2.92,0,1,1,22,24.3a2.93,2.93,0,0,1,2.6-3.22"/><path class="cls-1" d="M24.9,21.63a2.85,2.85,0,1,1-2.67,3,2.84,2.84,0,0,1,2.67-3"/><path class="cls-1" d="M25.25,22.17A2.78,2.78,0,1,1,22.5,25a2.79,2.79,0,0,1,2.75-2.83"/><path class="cls-1" d="M25.59,22.72a2.72,2.72,0,1,1-2.82,2.63,2.72,2.72,0,0,1,2.82-2.63"/><path class="cls-1" d="M25.94,23.26A2.67,2.67,0,1,1,23,25.69a2.68,2.68,0,0,1,2.89-2.43"/><path class="cls-1" d="M26.28,23.8a2.63,2.63,0,1,1-3,2.24,2.63,2.63,0,0,1,3-2.24"/><path class="cls-1" d="M26.63,24.34a2.59,2.59,0,1,1-3,2,2.59,2.59,0,0,1,3-2"/><path class="cls-1" d="M27,24.89a2.56,2.56,0,1,1-3.12,1.85A2.57,2.57,0,0,1,27,24.89"/><path class="cls-1" d="M27.32,25.43a2.54,2.54,0,1,1-3.19,1.66,2.54,2.54,0,0,1,3.19-1.66"/><path class="cls-1" d="M27.67,26a2.53,2.53,0,1,1-3.26,1.46A2.52,2.52,0,0,1,27.67,26"/><path class="cls-1" d="M28,26.52a2.52,2.52,0,1,1-3.34,1.26A2.52,2.52,0,0,1,28,26.52"/><path class="cls-1" d="M28.36,27.06a2.53,2.53,0,1,1-3.42,1.07,2.53,2.53,0,0,1,3.42-1.07"/><path class="cls-1" d="M28.7,27.6a2.54,2.54,0,1,1-3.48.87,2.54,2.54,0,0,1,3.48-.87"/><path class="cls-1" d="M29,28.14a2.56,2.56,0,1,1-3.56.68A2.56,2.56,0,0,1,29,28.14"/><path class="cls-1" d="M29.39,28.69a2.59,2.59,0,1,1-3.64.48,2.59,2.59,0,0,1,3.64-.48"/><path class="cls-1" d="M29.74,29.23a2.63,2.63,0,1,1-3.71.29,2.63,2.63,0,0,1,3.71-.29"/><path class="cls-1" d="M30.08,29.77a2.68,2.68,0,1,1-3.79.09,2.68,2.68,0,0,1,3.79-.09"/><path class="cls-1" d="M30.43,30.31a2.73,2.73,0,1,1-3.86-.1,2.73,2.73,0,0,1,3.86.1"/><path class="cls-1" d="M30.77,30.86a2.79,2.79,0,1,1-3.93-.3,2.79,2.79,0,0,1,3.93.3"/><path class="cls-1" d="M31.12,31.4a2.85,2.85,0,1,1-4-.5,2.86,2.86,0,0,1,4,.5"/><path class="cls-1" d="M31.46,31.94a2.93,2.93,0,1,1-4.08-.69,2.92,2.92,0,0,1,4.08.69"/><path class="cls-1" d="M31.81,32.49a3,3,0,1,1-4.15-.89,3,3,0,0,1,4.15.89"/><path class="cls-1" d="M32.15,33a3.09,3.09,0,1,1-4.23-1.08A3.08,3.08,0,0,1,32.15,33"/><path class="cls-1" d="M32.5,33.57A3.17,3.17,0,1,1,28.2,32.3a3.17,3.17,0,0,1,4.31,1.27"/><path class="cls-1" d="M32.84,34.11a3.27,3.27,0,1,1-4.37-1.47,3.26,3.26,0,0,1,4.37,1.47"/><path class="cls-1" d="M33.19,34.66A3.36,3.36,0,1,1,28.74,33a3.36,3.36,0,0,1,4.46,1.66"/><path class="cls-1" d="M33.54,35.2A3.46,3.46,0,1,1,29,33.34a3.47,3.47,0,0,1,4.52,1.86"/><path class="cls-1" d="M33.88,35.74a3.56,3.56,0,1,1-4.6-2.06,3.57,3.57,0,0,1,4.6,2.06"/><path class="cls-1" d="M34.22,36.28A3.67,3.67,0,1,1,29.55,34a3.67,3.67,0,0,1,4.67,2.25"/><path class="cls-1" d="M34.57,36.83a3.78,3.78,0,1,1-4.75-2.45,3.78,3.78,0,0,1,4.75,2.45"/><path class="cls-1" d="M34.92,37.37a3.89,3.89,0,1,1-4.82-2.64,3.89,3.89,0,0,1,4.82,2.64"/><path class="cls-1" d="M35.26,37.91a4,4,0,1,1-4.9-2.83,4,4,0,0,1,4.9,2.83"/><path class="cls-1" d="M35.61,38.45a4.12,4.12,0,1,1-5-3,4.12,4.12,0,0,1,5,3"/><path class="cls-1" d="M36,39a4.23,4.23,0,1,1-5-3.22A4.24,4.24,0,0,1,36,39"/><path class="cls-1" d="M36.3,39.54a4.35,4.35,0,1,1-5.12-3.42,4.36,4.36,0,0,1,5.12,3.42"/><path class="cls-1" d="M36.64,40.08a4.47,4.47,0,1,1-5.19-3.62,4.48,4.48,0,0,1,5.19,3.62"/><path class="cls-1" d="M37,40.63a4.6,4.6,0,1,1-5.27-3.81A4.6,4.6,0,0,1,37,40.63"/><path class="cls-1" d="M37.34,41.17a4.72,4.72,0,1,1-5.35-4,4.73,4.73,0,0,1,5.35,4"/><path class="cls-1" d="M37.68,41.71a4.85,4.85,0,1,1-5.42-4.2,4.85,4.85,0,0,1,5.42,4.2"/><path class="cls-1" d="M38,42.25a5,5,0,1,1-5.49-4.39A5,5,0,0,1,38,42.25"/><path class="cls-1" d="M38.37,42.8a5.1,5.1,0,1,1-5.56-4.59,5.11,5.11,0,0,1,5.56,4.59"/><path class="cls-1" d="M38.72,43.34a5.23,5.23,0,1,1-5.64-4.79,5.23,5.23,0,0,1,5.64,4.79"/><path class="cls-1" d="M39.06,43.89a5.36,5.36,0,1,1-5.71-5,5.36,5.36,0,0,1,5.71,5"/><path class="cls-1" d="M39.41,44.43a5.49,5.49,0,1,1-5.79-5.19,5.49,5.49,0,0,1,5.79,5.19"/><path class="cls-1" d="M39.75,45a5.62,5.62,0,1,1-5.86-5.38A5.62,5.62,0,0,1,39.75,45"/><path class="cls-1" d="M40.1,45.52a5.75,5.75,0,1,1-5.94-5.57,5.75,5.75,0,0,1,5.94,5.57"/><path class="cls-1" d="M40.45,46.06a5.89,5.89,0,1,1-6-5.77,5.89,5.89,0,0,1,6,5.77"/><path class="cls-1" d="M40.79,46.6a6,6,0,1,1-6.08-6,6,6,0,0,1,6.08,6"/><path class="cls-1" d="M41.14,47.15A6.16,6.16,0,1,1,35,41a6.16,6.16,0,0,1,6.16,6.16"/><path class="cls-1" d="M41.17,46.9a6.07,6.07,0,1,1-6.12-6,6.08,6.08,0,0,1,6.12,6"/><path class="cls-1" d="M41.2,46.65a6,6,0,1,1-6.08-5.91,6,6,0,0,1,6.08,5.91"/><path class="cls-1" d="M41.23,46.4a5.91,5.91,0,1,1-6-5.78,5.91,5.91,0,0,1,6,5.78"/><path class="cls-1" d="M41.26,46.15a5.83,5.83,0,1,1-6-5.66,5.83,5.83,0,0,1,6,5.66"/><path class="cls-1" d="M41.29,45.91a5.75,5.75,0,1,1-5.95-5.53,5.75,5.75,0,0,1,5.95,5.53"/><path class="cls-1" d="M41.32,45.66a5.66,5.66,0,1,1-5.92-5.4,5.66,5.66,0,0,1,5.92,5.4"/><path class="cls-1" d="M41.35,45.41a5.58,5.58,0,1,1-5.87-5.28,5.58,5.58,0,0,1,5.87,5.28"/><path class="cls-1" d="M41.38,45.16A5.5,5.5,0,1,1,35.55,40a5.51,5.51,0,0,1,5.83,5.15"/><path class="cls-1" d="M41.41,44.91a5.42,5.42,0,1,1-5.79-5,5.41,5.41,0,0,1,5.79,5"/><path class="cls-1" d="M41.44,44.67a5.34,5.34,0,1,1-5.75-4.9,5.34,5.34,0,0,1,5.75,4.9"/><path class="cls-1" d="M41.47,44.42a5.26,5.26,0,1,1-5.71-4.77,5.27,5.27,0,0,1,5.71,4.77"/><path class="cls-1" d="M41.5,44.17a5.18,5.18,0,1,1-5.67-4.64,5.18,5.18,0,0,1,5.67,4.64"/><path class="cls-1" d="M41.54,43.92a5.11,5.11,0,1,1-5.63-4.52,5.1,5.1,0,0,1,5.63,4.52"/><path class="cls-1" d="M41.56,43.68A5,5,0,1,1,36,39.28a5,5,0,0,1,5.59,4.4"/><path class="cls-1" d="M41.6,43.43A5,5,0,1,1,36,39.16a4.95,4.95,0,0,1,5.55,4.27"/><path class="cls-1" d="M41.62,43.18A4.87,4.87,0,1,1,36.11,39a4.87,4.87,0,0,1,5.51,4.15"/><path class="cls-1" d="M41.66,42.94a4.8,4.8,0,1,1-5.47-4,4.79,4.79,0,0,1,5.47,4"/><path class="cls-1" d="M41.68,42.69a4.72,4.72,0,1,1-5.42-3.89,4.72,4.72,0,0,1,5.42,3.89"/><path class="cls-1" d="M41.72,42.44a4.65,4.65,0,1,1-5.39-3.77,4.64,4.64,0,0,1,5.39,3.77"/><path class="cls-1" d="M41.74,42.19a4.57,4.57,0,1,1-5.34-3.64,4.57,4.57,0,0,1,5.34,3.64"/><path class="cls-1" d="M41.78,41.95a4.5,4.5,0,1,1-5.31-3.52,4.5,4.5,0,0,1,5.31,3.52"/><path class="cls-1" d="M41.8,41.7a4.42,4.42,0,1,1-5.26-3.39A4.42,4.42,0,0,1,41.8,41.7"/><path class="cls-1" d="M41.84,41.45a4.35,4.35,0,1,1-5.22-3.26,4.36,4.36,0,0,1,5.22,3.26"/><path class="cls-1" d="M41.86,41.2a4.28,4.28,0,1,1-5.18-3.14,4.28,4.28,0,0,1,5.18,3.14"/><path class="cls-1" d="M41.9,41a4.21,4.21,0,1,1-5.14-3,4.22,4.22,0,0,1,5.14,3"/><path class="cls-1" d="M41.92,40.71a4.14,4.14,0,1,1-5.1-2.89,4.15,4.15,0,0,1,5.1,2.89"/><path class="cls-1" d="M42,40.46A4.08,4.08,0,1,1,36.9,37.7,4.07,4.07,0,0,1,42,40.46"/><path class="cls-1" d="M42,40.21a4,4,0,1,1-5-2.63,4,4,0,0,1,5,2.63"/><path class="cls-1" d="M42,40a3.94,3.94,0,1,1-5-2.51A3.94,3.94,0,0,1,42,40"/><path class="cls-1" d="M42,39.72a3.87,3.87,0,1,1-4.93-2.39A3.87,3.87,0,0,1,42,39.72"/><path class="cls-1" d="M42.08,39.47a3.81,3.81,0,1,1-4.89-2.26,3.81,3.81,0,0,1,4.89,2.26"/><path class="cls-1" d="M42.1,39.23a3.75,3.75,0,1,1-4.85-2.14,3.74,3.74,0,0,1,4.85,2.14"/><path class="cls-1" d="M42.14,39a3.69,3.69,0,1,1-4.81-2,3.68,3.68,0,0,1,4.81,2"/><path class="cls-1" d="M42.17,38.73a3.63,3.63,0,1,1-4.78-1.88,3.63,3.63,0,0,1,4.78,1.88"/><path class="cls-1" d="M42.2,38.48a3.57,3.57,0,1,1-4.73-1.75,3.57,3.57,0,0,1,4.73,1.75"/><path class="cls-1" d="M42.23,38.23a3.51,3.51,0,1,1-4.69-1.63,3.51,3.51,0,0,1,4.69,1.63"/><path class="cls-1" d="M42.26,38a3.45,3.45,0,1,1-4.65-1.5A3.46,3.46,0,0,1,42.26,38"/><path class="cls-1" d="M42.29,37.74a3.4,3.4,0,1,1-4.61-1.38,3.4,3.4,0,0,1,4.61,1.38"/><path class="cls-1" d="M42.32,37.49a3.35,3.35,0,1,1-4.57-1.25,3.35,3.35,0,0,1,4.57,1.25"/><path class="cls-1" d="M42.35,37.24a3.3,3.3,0,1,1-4.53-1.13,3.3,3.3,0,0,1,4.53,1.13"/><path class="cls-1" d="M42.38,37a3.25,3.25,0,1,1-4.48-1,3.25,3.25,0,0,1,4.48,1"/><path class="cls-1" d="M42.41,36.75A3.2,3.2,0,1,1,38,35.88a3.21,3.21,0,0,1,4.45.87"/><path class="cls-1" d="M42.44,36.5a3.16,3.16,0,1,1-4.4-.74,3.16,3.16,0,0,1,4.4.74"/><path class="cls-1" d="M42.47,36.25a3.12,3.12,0,1,1-4.37-.62,3.13,3.13,0,0,1,4.37.62"/><path class="cls-1" d="M42.5,36a3.08,3.08,0,1,1-4.32-.5,3.08,3.08,0,0,1,4.32.5"/><path class="cls-1" d="M42.53,35.76a3,3,0,1,1-4.28-.38,3,3,0,0,1,4.28.38"/><path class="cls-1" d="M42.56,35.51a3,3,0,1,1-4.24-.25,3,3,0,0,1,4.24.25"/><path class="cls-1" d="M42.59,35.27a3,3,0,1,1-4.2-.12,3,3,0,0,1,4.2.12"/><path class="cls-1" d="M42.62,35a2.94,2.94,0,1,1-4.15,0,2.94,2.94,0,0,1,4.15,0"/><path class="cls-1" d="M42.65,34.77a2.91,2.91,0,1,1-4.12.13,2.91,2.91,0,0,1,4.12-.13"/><path class="cls-1" d="M42.68,34.52a2.89,2.89,0,1,1-4.07.26,2.89,2.89,0,0,1,4.07-.26"/><path class="cls-1" d="M42.71,34.27a2.87,2.87,0,1,1-4,.38,2.87,2.87,0,0,1,4-.38"/><path class="cls-1" d="M42.74,34a2.85,2.85,0,1,1-4,.51,2.85,2.85,0,0,1,4-.51"/><path class="cls-1" d="M42.78,33.78a2.83,2.83,0,1,1-4,.64,2.83,2.83,0,0,1,4-.64"/><path class="cls-1" d="M42.8,33.53a2.82,2.82,0,1,1-3.91.77,2.82,2.82,0,0,1,3.91-.77"/><path class="cls-1" d="M42.84,33.28a2.81,2.81,0,1,1-3.87.89,2.81,2.81,0,0,1,3.87-.89"/><path class="cls-1" d="M42.87,33a2.81,2.81,0,1,1-3.84,1,2.81,2.81,0,0,1,3.84-1"/><path class="cls-1" d="M42.9,32.79a2.8,2.8,0,1,1-3.79,1.14,2.8,2.8,0,0,1,3.79-1.14"/><path class="cls-1" d="M42.93,32.54a2.8,2.8,0,1,1-3.75,1.27,2.81,2.81,0,0,1,3.75-1.27"/><path class="cls-1" d="M43,32.29a2.8,2.8,0,1,1-3.71,1.39A2.81,2.81,0,0,1,43,32.29"/><path class="cls-1" d="M43,32a2.81,2.81,0,1,1-3.67,1.52A2.81,2.81,0,0,1,43,32"/><path class="cls-1" d="M43,31.8a2.81,2.81,0,1,1-3.63,1.64A2.8,2.8,0,0,1,43,31.8"/><path class="cls-1" d="M43,31.55a2.83,2.83,0,1,1-3.59,1.77A2.83,2.83,0,0,1,43,31.55"/><path class="cls-1" d="M43.08,31.3a2.84,2.84,0,1,1-3.54,1.89,2.85,2.85,0,0,1,3.54-1.89"/><path class="cls-1" d="M43.11,31.06a2.86,2.86,0,1,1-3.51,2,2.86,2.86,0,0,1,3.51-2"/><path class="cls-1" d="M43.14,30.81A2.88,2.88,0,1,1,39.67,33a2.88,2.88,0,0,1,3.46-2.14"/><path class="cls-1" d="M43.17,30.56a2.91,2.91,0,1,1-3.42,2.27,2.9,2.9,0,0,1,3.42-2.27"/><path class="cls-1" d="M43.2,30.31a2.93,2.93,0,1,1-3.38,2.4,2.93,2.93,0,0,1,3.38-2.4"/><path class="cls-1" d="M43.23,30.07a3,3,0,1,1-3.34,2.52,3,3,0,0,1,3.34-2.52"/><path class="cls-1" d="M43.26,29.82A3,3,0,1,1,40,32.47a3,3,0,0,1,3.3-2.65"/><path class="cls-1" d="M43.29,29.57A3,3,0,1,1,40,32.34a3,3,0,0,1,3.26-2.77"/><path class="cls-1" d="M43.32,29.32a3.07,3.07,0,1,1-3.22,2.9,3.06,3.06,0,0,1,3.22-2.9"/><path class="cls-1" d="M43.35,29.08a3.11,3.11,0,1,1-3.18,3,3.11,3.11,0,0,1,3.18-3"/><path class="cls-1" d="M43.38,28.83A3.15,3.15,0,1,1,40.24,32a3.15,3.15,0,0,1,3.14-3.16"/><path class="cls-1" d="M43.41,28.58a3.19,3.19,0,1,1-3.1,3.28,3.19,3.19,0,0,1,3.1-3.28"/><path class="cls-1" d="M43.44,28.33a3.24,3.24,0,1,1-3.05,3.41,3.25,3.25,0,0,1,3.05-3.41"/><path class="cls-1" d="M43.47,28.08a3.29,3.29,0,1,1-3,3.53,3.29,3.29,0,0,1,3-3.53"/><path class="cls-1" d="M43.5,27.84a3.33,3.33,0,1,1-3,3.65,3.33,3.33,0,0,1,3-3.65"/><path class="cls-1" d="M43.53,27.59a3.38,3.38,0,1,1-2.93,3.78,3.39,3.39,0,0,1,2.93-3.78"/><path class="cls-1" d="M43.56,27.35a3.44,3.44,0,1,1-2.9,3.91,3.44,3.44,0,0,1,2.9-3.91"/><path class="cls-1" d="M43.59,27.1a3.49,3.49,0,1,1-2.85,4,3.49,3.49,0,0,1,2.85-4"/><path class="cls-1" d="M43.63,26.85A3.55,3.55,0,1,1,40.81,31a3.54,3.54,0,0,1,2.81-4.16"/><path class="cls-1" d="M43.65,26.6a3.61,3.61,0,1,1-2.77,4.28,3.62,3.62,0,0,1,2.77-4.28"/><path class="cls-1" d="M43.69,26.35A3.67,3.67,0,1,1,41,30.76a3.66,3.66,0,0,1,2.73-4.41"/><path class="cls-1" d="M43.71,26.11A3.73,3.73,0,1,1,41,30.64a3.73,3.73,0,0,1,2.69-4.54"/><path class="cls-1" d="M43.75,25.86a3.79,3.79,0,1,1-2.65,4.66,3.79,3.79,0,0,1,2.65-4.66"/><path class="cls-1" d="M43.77,25.61a3.86,3.86,0,1,1-2.61,4.79,3.86,3.86,0,0,1,2.61-4.79"/><path class="cls-1" d="M43.81,25.36a3.92,3.92,0,1,1-2.57,4.92,3.92,3.92,0,0,1,2.57-4.92"/><path class="cls-1" d="M43.83,25.11a4,4,0,1,1-2.53,5,4,4,0,0,1,2.53-5"/><path class="cls-1" d="M43.87,24.87A4.06,4.06,0,1,1,41.38,30a4.06,4.06,0,0,1,2.49-5.16"/><path class="cls-1" d="M43.89,24.62a4.12,4.12,0,1,1-2.45,5.29,4.13,4.13,0,0,1,2.45-5.29"/><path class="cls-1" d="M43.93,24.37a4.19,4.19,0,1,1-2.4,5.42,4.19,4.19,0,0,1,2.4-5.42"/><path class="cls-1" d="M44,24.12a4.26,4.26,0,1,1-2.37,5.55A4.27,4.27,0,0,1,44,24.12"/><path class="cls-1" d="M44,23.88a4.33,4.33,0,1,1-2.33,5.67A4.33,4.33,0,0,1,44,23.88"/><path class="cls-1" d="M44,23.63a4.4,4.4,0,1,1-2.28,5.79A4.4,4.4,0,0,1,44,23.63"/><path class="cls-1" d="M44,23.39A4.48,4.48,0,1,1,41.8,29.3,4.48,4.48,0,0,1,44,23.39"/><path class="cls-1" d="M44.07,23.14a4.55,4.55,0,1,1-2.2,6,4.55,4.55,0,0,1,2.2-6"/><path class="cls-1" d="M44.11,22.89a4.63,4.63,0,1,1-2.16,6.17,4.62,4.62,0,0,1,2.16-6.17"/><path class="cls-1" d="M44.14,22.64A4.7,4.7,0,1,1,42,28.94a4.7,4.7,0,0,1,2.12-6.3"/><path class="cls-1" d="M44.17,22.39a4.77,4.77,0,1,1-2.08,6.43,4.78,4.78,0,0,1,2.08-6.43"/><path class="cls-1" d="M44.2,22.15a4.85,4.85,0,1,1-2,6.55,4.84,4.84,0,0,1,2-6.55"/><path class="cls-1" d="M44.23,21.9a4.93,4.93,0,1,1-2,6.67,4.93,4.93,0,0,1,2-6.67"/><path class="cls-1" d="M44.26,21.65a5,5,0,1,1-2,6.8,5,5,0,0,1,2-6.8"/><path class="cls-1" d="M44.29,21.4a5.08,5.08,0,1,1-1.92,6.93,5.09,5.09,0,0,1,1.92-6.93"/><path class="cls-1" d="M44.32,21.16a5.16,5.16,0,1,1-1.88,7.05,5.16,5.16,0,0,1,1.88-7.05"/><path class="cls-1" d="M44.35,20.91a5.24,5.24,0,1,1-1.84,7.18,5.25,5.25,0,0,1,1.84-7.18"/><path class="cls-1" d="M44.38,20.66A5.32,5.32,0,1,1,42.59,28a5.32,5.32,0,0,1,1.8-7.31"/><path class="cls-1" d="M44.41,20.41a5.4,5.4,0,1,1-1.75,7.43,5.4,5.4,0,0,1,1.75-7.43"/><path class="cls-1" d="M44.44,20.16a5.48,5.48,0,1,1-1.72,7.56,5.48,5.48,0,0,1,1.72-7.56"/><path class="cls-1" d="M44.47,19.92A5.56,5.56,0,1,1,42.8,27.6a5.56,5.56,0,0,1,1.67-7.68"/><path class="cls-1" d="M44.5,19.67a5.64,5.64,0,1,1-1.63,7.81,5.63,5.63,0,0,1,1.63-7.81"/><path class="cls-1" d="M44.53,19.43a5.72,5.72,0,1,1-1.59,7.93,5.72,5.72,0,0,1,1.59-7.93"/><path class="cls-1" d="M44.56,19.18A5.8,5.8,0,1,1,43,27.24a5.8,5.8,0,0,1,1.55-8.06"/><path class="cls-1" d="M44.59,18.93a5.89,5.89,0,1,1-1.51,8.18,5.88,5.88,0,0,1,1.51-8.18"/><path class="cls-1" d="M44.62,18.68A6,6,0,1,1,43.16,27a6,6,0,0,1,1.47-8.31"/><path class="cls-1" d="M44.65,18.44a6.05,6.05,0,1,1-1.43,8.44,6.05,6.05,0,0,1,1.43-8.44"/><path class="cls-1" d="M44.68,18.19a6.13,6.13,0,1,1-1.39,8.56,6.13,6.13,0,0,1,1.39-8.56"/><path class="cls-1" d="M44.71,17.94a6.22,6.22,0,1,1-1.34,8.69,6.21,6.21,0,0,1,1.34-8.69"/><path class="cls-1" d="M44.74,17.69a6.3,6.3,0,1,1-1.31,8.82,6.31,6.31,0,0,1,1.31-8.82"/><path class="cls-1" d="M44.78,17.44a6.38,6.38,0,1,1-1.27,8.94,6.38,6.38,0,0,1,1.27-8.94"/><path class="cls-1" d="M44.8,17.2a6.47,6.47,0,1,1-1.22,9.07A6.47,6.47,0,0,1,44.8,17.2"/><path class="cls-1" d="M44.84,16.95a6.55,6.55,0,1,1-1.19,9.19,6.54,6.54,0,0,1,1.19-9.19"/><path class="cls-1" d="M44.86,16.7A6.64,6.64,0,1,1,43.73,26a6.64,6.64,0,0,1,1.14-9.32"/><path class="cls-1" d="M44.9,16.45a6.72,6.72,0,1,1-1.11,9.45,6.72,6.72,0,0,1,1.11-9.45"/><path class="cls-1" d="M44.92,16.2a6.81,6.81,0,1,1-1.06,9.57,6.81,6.81,0,0,1,1.06-9.57"/><path class="cls-1" d="M45,16a6.89,6.89,0,1,1-1,9.69A6.89,6.89,0,0,1,45,16"/><path class="cls-1" d="M45,15.71a7,7,0,1,1-1,9.81,7,7,0,0,1,1-9.81"/><path class="cls-1" d="M45,15.47a7.06,7.06,0,1,1-.94,9.94A7.05,7.05,0,0,1,45,15.47"/><path class="cls-1" d="M45,15.22a7.15,7.15,0,1,1-.9,10.07A7.15,7.15,0,0,1,45,15.22"/><path class="cls-1" d="M45.08,15a7.24,7.24,0,1,1-.86,10.2A7.24,7.24,0,0,1,45.08,15"/><path class="cls-1" d="M45.11,14.72A7.33,7.33,0,1,1,44.29,25a7.32,7.32,0,0,1,.82-10.32"/><path class="cls-1" d="M45.14,14.47a7.41,7.41,0,1,1-.78,10.45,7.4,7.4,0,0,1,.78-10.45"/><path class="cls-1" d="M45.17,14.23a7.5,7.5,0,1,1-.73,10.57,7.5,7.5,0,0,1,.73-10.57"/><path class="cls-1" d="M45.2,14a7.58,7.58,0,1,1-.7,10.7A7.59,7.59,0,0,1,45.2,14"/><path class="cls-1" d="M45.23,13.73a7.67,7.67,0,1,1-.65,10.83,7.68,7.68,0,0,1,.65-10.83"/><path class="cls-1" d="M45.26,13.48a7.76,7.76,0,1,1-.61,11,7.76,7.76,0,0,1,.61-11"/><path class="cls-1" d="M45.29,13.23a7.85,7.85,0,1,1-.57,11.08,7.85,7.85,0,0,1,.57-11.08"/><path class="cls-1" d="M45.32,13a7.93,7.93,0,1,1-.53,11.21A7.93,7.93,0,0,1,45.32,13"/><path class="cls-1" d="M45.35,12.74a8,8,0,1,1-.48,11.33,8,8,0,0,1,.48-11.33"/><path class="cls-1" d="M45.38,12.49a8.11,8.11,0,1,1-.45,11.46,8.12,8.12,0,0,1,.45-11.46"/><path class="cls-1" d="M45.42,12.24A8.19,8.19,0,1,1,45,23.83a8.19,8.19,0,0,1,.41-11.58"/><path class="cls-1" d="M45.44,12a8.28,8.28,0,1,1-.37,11.7A8.29,8.29,0,0,1,45.44,12"/><path class="cls-1" d="M45.48,11.75a8.37,8.37,0,1,1-.33,11.83,8.37,8.37,0,0,1,.33-11.83"/><path class="cls-1" d="M45.5,11.51a8.46,8.46,0,1,1-.28,12,8.46,8.46,0,0,1,.28-12"/><path class="cls-1" d="M45.54,11.26a8.55,8.55,0,1,1-.25,12.08,8.54,8.54,0,0,1,.25-12.08"/><path class="cls-1" d="M45.56,11a8.64,8.64,0,1,1-.2,12.21A8.64,8.64,0,0,1,45.56,11"/><path class="cls-1" d="M45.6,10.76a8.73,8.73,0,1,1-.17,12.33,8.72,8.72,0,0,1,.17-12.33"/><path class="cls-1" d="M45.62,10.51A8.81,8.81,0,1,1,45.5,23a8.81,8.81,0,0,1,.12-12.46"/><path class="cls-1" d="M45.66,10.27a8.9,8.9,0,1,1-.09,12.59,8.89,8.89,0,0,1,.09-12.59"/><path class="cls-1" d="M45.68,10a9,9,0,1,1,0,12.72,9,9,0,0,1,0-12.72"/><path class="cls-1" d="M58.55,22.62a9.08,9.08,0,1,1,0-12.84,9.08,9.08,0,0,1,0,12.84"/><path class="cls-1" d="M45.89,10a9,9,0,1,1,0,12.72,9,9,0,0,1,0-12.72"/><path class="cls-1" d="M46.06,10.32a8.92,8.92,0,1,1,0,12.61,8.92,8.92,0,0,1,0-12.61"/><path class="cls-1" d="M46.23,10.59a8.84,8.84,0,1,1-.08,12.5,8.83,8.83,0,0,1,.08-12.5"/><path class="cls-1" d="M46.41,10.87a8.76,8.76,0,1,1-.11,12.38,8.76,8.76,0,0,1,.11-12.38"/><path class="cls-1" d="M46.58,11.15a8.67,8.67,0,1,1-.13,12.27,8.67,8.67,0,0,1,.13-12.27"/><path class="cls-1" d="M46.75,11.42a8.59,8.59,0,1,1-.16,12.15,8.59,8.59,0,0,1,.16-12.15"/><path class="cls-1" d="M46.93,11.69a8.51,8.51,0,1,1-.19,12,8.51,8.51,0,0,1,.19-12"/><path class="cls-1" d="M47.1,12a8.43,8.43,0,1,1-.21,11.93A8.44,8.44,0,0,1,47.1,12"/><path class="cls-1" d="M47.27,12.24A8.35,8.35,0,1,1,47,24a8.36,8.36,0,0,1,.23-11.81"/><path class="cls-1" d="M47.44,12.51a8.27,8.27,0,1,1-.26,11.7,8.28,8.28,0,0,1,.26-11.7"/><path class="cls-1" d="M47.62,12.79a8.19,8.19,0,1,1-.29,11.58,8.19,8.19,0,0,1,.29-11.58"/><path class="cls-1" d="M47.79,13.06a8.11,8.11,0,1,1-.31,11.46,8.1,8.1,0,0,1,.31-11.46"/><path class="cls-1" d="M48,13.34a8,8,0,1,1-.34,11.35A8,8,0,0,1,48,13.34"/><path class="cls-1" d="M48.13,13.61a7.95,7.95,0,1,1-.36,11.24,8,8,0,0,1,.36-11.24"/><path class="cls-1" d="M48.31,13.88A7.87,7.87,0,1,1,47.92,25a7.87,7.87,0,0,1,.39-11.12"/><path class="cls-1" d="M48.48,14.16a7.79,7.79,0,1,1-.42,11,7.79,7.79,0,0,1,.42-11"/><path class="cls-1" d="M48.66,14.44a7.71,7.71,0,1,1-.44,10.89,7.71,7.71,0,0,1,.44-10.89"/><path class="cls-1" d="M48.83,14.71a7.63,7.63,0,1,1-.47,10.77,7.63,7.63,0,0,1,.47-10.77"/><path class="cls-1" d="M49,15a7.55,7.55,0,1,1-.5,10.66A7.54,7.54,0,0,1,49,15"/><path class="cls-1" d="M49.17,15.25a7.47,7.47,0,1,1-.52,10.55,7.48,7.48,0,0,1,.52-10.55"/><path class="cls-1" d="M49.35,15.53A7.39,7.39,0,1,1,48.8,26a7.39,7.39,0,0,1,.54-10.44"/><path class="cls-1" d="M49.52,15.8A7.31,7.31,0,1,1,49,26.12a7.31,7.31,0,0,1,.57-10.32"/><path class="cls-1" d="M49.7,16.08a7.23,7.23,0,1,1-.6,10.2,7.22,7.22,0,0,1,.6-10.2"/><path class="cls-1" d="M49.87,16.35a7.15,7.15,0,1,1-.62,10.09,7.15,7.15,0,0,1,.62-10.09"/><path class="cls-1" d="M50,16.63a7.07,7.07,0,1,1-.66,10,7.07,7.07,0,0,1,.66-10"/><path class="cls-1" d="M50.21,16.9a7,7,0,1,1-.68,9.86,7,7,0,0,1,.68-9.86"/><path class="cls-1" d="M50.39,17.17a6.91,6.91,0,1,1-.7,9.74,6.91,6.91,0,0,1,.7-9.74"/><path class="cls-1" d="M50.56,17.45a6.83,6.83,0,1,1-.73,9.63,6.83,6.83,0,0,1,.73-9.63"/><path class="cls-1" d="M50.73,17.73A6.75,6.75,0,1,1,50,27.24a6.75,6.75,0,0,1,.76-9.51"/><path class="cls-1" d="M50.91,18a6.67,6.67,0,1,1-.78,9.4,6.67,6.67,0,0,1,.78-9.4"/><path class="cls-1" d="M51.08,18.27a6.59,6.59,0,1,1-.81,9.29,6.59,6.59,0,0,1,.81-9.29"/><path class="cls-1" d="M51.25,18.54a6.52,6.52,0,1,1-.83,9.18,6.52,6.52,0,0,1,.83-9.18"/><path class="cls-1" d="M51.42,18.82a6.44,6.44,0,1,1-.86,9.06,6.43,6.43,0,0,1,.86-9.06"/><path class="cls-1" d="M51.6,19.09A6.36,6.36,0,1,1,50.71,28a6.36,6.36,0,0,1,.89-8.95"/><path class="cls-1" d="M51.77,19.37a6.28,6.28,0,1,1-.91,8.83,6.28,6.28,0,0,1,.91-8.83"/><path class="cls-1" d="M51.95,19.64A6.2,6.2,0,1,1,51,28.36a6.2,6.2,0,0,1,.94-8.72"/><path class="cls-1" d="M52.12,19.92a6.12,6.12,0,1,1-1,8.6,6.11,6.11,0,0,1,1-8.6"/><path class="cls-1" d="M52.29,20.19a6,6,0,1,1-1,8.48,6,6,0,0,1,1-8.48"/><path class="cls-1" d="M52.46,20.46a6,6,0,1,1-1,8.37,6,6,0,0,1,1-8.37"/><path class="cls-1" d="M52.64,20.74a5.89,5.89,0,1,1-1,8.26,5.89,5.89,0,0,1,1-8.26"/><path class="cls-1" d="M52.81,21a5.81,5.81,0,1,1-1.07,8.14A5.81,5.81,0,0,1,52.81,21"/><path class="cls-1" d="M53,21.29a5.73,5.73,0,1,1-1.1,8,5.72,5.72,0,0,1,1.1-8"/><path class="cls-1" d="M53.16,21.56A5.65,5.65,0,1,1,52,29.47a5.64,5.64,0,0,1,1.13-7.91"/><path class="cls-1" d="M53.33,21.83a5.57,5.57,0,1,1-1.15,7.8,5.58,5.58,0,0,1,1.15-7.8"/><path class="cls-1" d="M53.5,22.11a5.5,5.5,0,1,1-1.17,7.69,5.5,5.5,0,0,1,1.17-7.69"/><path class="cls-1" d="M53.68,22.38A5.42,5.42,0,1,1,52.48,30a5.43,5.43,0,0,1,1.2-7.57"/><path class="cls-1" d="M53.85,22.66a5.34,5.34,0,1,1-1.23,7.46,5.34,5.34,0,0,1,1.23-7.46"/><path class="cls-1" d="M54,22.93a5.26,5.26,0,1,1-1.25,7.34A5.26,5.26,0,0,1,54,22.93"/><path class="cls-1" d="M54.2,23.21a5.19,5.19,0,1,1-1.28,7.22,5.19,5.19,0,0,1,1.28-7.22"/><path class="cls-1" d="M54.37,23.48a5.11,5.11,0,1,1-1.3,7.11,5.12,5.12,0,0,1,1.3-7.11"/><path class="cls-1" d="M54.54,23.75a5,5,0,1,1-1.33,7,5,5,0,0,1,1.33-7"/><path class="cls-1" d="M54.71,24a5,5,0,1,1-1.35,6.88A5,5,0,0,1,54.71,24"/><path class="cls-1" d="M54.89,24.3a4.88,4.88,0,1,1-1.38,6.77,4.88,4.88,0,0,1,1.38-6.77"/><path class="cls-1" d="M55.06,24.58a4.81,4.81,0,1,1-1.41,6.65,4.8,4.8,0,0,1,1.41-6.65"/><path class="cls-1" d="M55.24,24.85a4.73,4.73,0,1,1-1.43,6.53,4.73,4.73,0,0,1,1.43-6.53"/><path class="cls-1" d="M55.41,25.12A4.66,4.66,0,1,1,54,31.55a4.66,4.66,0,0,1,1.46-6.43"/><path class="cls-1" d="M55.58,25.4a4.58,4.58,0,1,1-1.48,6.31,4.59,4.59,0,0,1,1.48-6.31"/><path class="cls-1" d="M55.75,25.67a4.51,4.51,0,1,1-1.51,6.2,4.51,4.51,0,0,1,1.51-6.2"/><path class="cls-1" d="M55.93,25.94A4.44,4.44,0,1,1,54.39,32a4.43,4.43,0,0,1,1.53-6.08"/><path class="cls-1" d="M56.1,26.22a4.36,4.36,0,1,1-1.56,6,4.36,4.36,0,0,1,1.56-6"/><path class="cls-1" d="M56.28,26.5a4.29,4.29,0,1,1-1.59,5.85,4.29,4.29,0,0,1,1.59-5.85"/><path class="cls-1" d="M56.45,26.77a4.21,4.21,0,1,1-1.61,5.74,4.21,4.21,0,0,1,1.61-5.74"/><path class="cls-1" d="M56.62,27A4.14,4.14,0,1,1,55,32.67,4.13,4.13,0,0,1,56.62,27"/><path class="cls-1" d="M56.79,27.32a4.07,4.07,0,1,1-1.67,5.51,4.07,4.07,0,0,1,1.67-5.51"/><path class="cls-1" d="M57,27.59A4,4,0,1,1,55.27,33,4,4,0,0,1,57,27.59"/><path class="cls-1" d="M57.14,27.87a3.92,3.92,0,1,1-1.72,5.27,3.93,3.93,0,0,1,1.72-5.27"/><path class="cls-1" d="M57.31,28.14a3.85,3.85,0,1,1-1.75,5.16,3.85,3.85,0,0,1,1.75-5.16"/><path class="cls-1" d="M57.49,28.41a3.78,3.78,0,1,1-1.78,5.05,3.78,3.78,0,0,1,1.78-5.05"/><path class="cls-1" d="M57.66,28.69a3.71,3.71,0,1,1-1.8,4.94,3.72,3.72,0,0,1,1.8-4.94"/><path class="cls-1" d="M57.83,29A3.65,3.65,0,1,1,56,33.78,3.65,3.65,0,0,1,57.83,29"/><path class="cls-1" d="M58,29.23a3.57,3.57,0,1,1-1.85,4.7A3.58,3.58,0,0,1,58,29.23"/><path class="cls-1" d="M58.18,29.51A3.51,3.51,0,1,1,56.3,34.1a3.5,3.5,0,0,1,1.88-4.59"/><path class="cls-1" d="M58.35,29.79a3.44,3.44,0,1,1-1.9,4.48,3.44,3.44,0,0,1,1.9-4.48"/><path class="cls-1" d="M58.53,30.06a3.37,3.37,0,1,1-1.93,4.36,3.36,3.36,0,0,1,1.93-4.36"/><path class="cls-1" d="M58.69,30.33a3.3,3.3,0,1,1-2,4.24,3.3,3.3,0,0,1,2-4.24"/><path class="cls-1" d="M58.87,30.61a3.24,3.24,0,1,1-2,4.13,3.24,3.24,0,0,1,2-4.13"/><path class="cls-1" d="M59,30.88a3.18,3.18,0,1,1-2,4,3.18,3.18,0,0,1,2-4"/><path class="cls-1" d="M59.22,31.16a3.11,3.11,0,1,1-2,3.9,3.11,3.11,0,0,1,2-3.9"/><path class="cls-1" d="M59.39,31.43a3,3,0,1,1-2.06,3.79,3,3,0,0,1,2.06-3.79"/><path class="cls-1" d="M59.57,31.7a3,3,0,1,1-2.09,3.68,3,3,0,0,1,2.09-3.68"/><path class="cls-1" d="M59.73,32a2.93,2.93,0,1,1-2.11,3.56A2.93,2.93,0,0,1,59.73,32"/><path class="cls-1" d="M59.91,32.25a2.87,2.87,0,1,1-2.14,3.44,2.87,2.87,0,0,1,2.14-3.44"/><path class="cls-1" d="M60.08,32.52a2.81,2.81,0,1,1-2.16,3.33,2.81,2.81,0,0,1,2.16-3.33"/><path class="cls-1" d="M60.26,32.8A2.75,2.75,0,1,1,58.07,36a2.75,2.75,0,0,1,2.19-3.22"/><path class="cls-1" d="M60.43,33.08a2.69,2.69,0,1,1-2.22,3.1,2.68,2.68,0,0,1,2.22-3.1"/><path class="cls-1" d="M60.6,33.35a2.64,2.64,0,1,1-2.25,3,2.64,2.64,0,0,1,2.25-3"/><path class="cls-1" d="M60.77,33.62a2.58,2.58,0,1,1-2.27,2.87,2.58,2.58,0,0,1,2.27-2.87"/><path class="cls-1" d="M60.95,33.9a2.53,2.53,0,1,1-2.29,2.75,2.55,2.55,0,0,1,2.29-2.75"/><path class="cls-1" d="M61.12,34.17a2.48,2.48,0,1,1-2.32,2.64,2.48,2.48,0,0,1,2.32-2.64"/><path class="cls-1" d="M61.29,34.45A2.44,2.44,0,1,1,58.95,37a2.43,2.43,0,0,1,2.34-2.52"/><path class="cls-1" d="M61.47,34.72a2.39,2.39,0,1,1-2.37,2.41,2.39,2.39,0,0,1,2.37-2.41"/><path class="cls-1" d="M61.64,35a2.35,2.35,0,1,1-2.4,2.3,2.35,2.35,0,0,1,2.4-2.3"/><path class="cls-1" d="M61.81,35.27a2.31,2.31,0,1,1-2.42,2.19,2.31,2.31,0,0,1,2.42-2.19"/><path class="cls-1" d="M62,35.54a2.27,2.27,0,1,1-2.45,2.07A2.27,2.27,0,0,1,62,35.54"/><path class="cls-1" d="M62.16,35.81a2.23,2.23,0,1,1-2.47,2,2.23,2.23,0,0,1,2.47-2"/><path class="cls-1" d="M62.33,36.09a2.2,2.2,0,1,1-2.5,1.84,2.18,2.18,0,0,1,2.5-1.84"/><path class="cls-1" d="M62.51,36.36A2.16,2.16,0,1,1,60,38.09a2.16,2.16,0,0,1,2.52-1.72"/><path class="cls-1" d="M62.68,36.64a2.13,2.13,0,1,1-2.55,1.61,2.13,2.13,0,0,1,2.55-1.61"/><path class="cls-1" d="M62.85,36.91a2.11,2.11,0,1,1-2.57,1.49,2.11,2.11,0,0,1,2.57-1.49"/><path class="cls-1" d="M63,37.19a2.08,2.08,0,1,1-2.6,1.38A2.07,2.07,0,0,1,63,37.19"/><path class="cls-1" d="M63.2,37.46a2.06,2.06,0,1,1-2.63,1.27,2.06,2.06,0,0,1,2.63-1.27"/><path class="cls-1" d="M63.37,37.74a2,2,0,1,1-2.66,1.15,2,2,0,0,1,2.66-1.15"/><path class="cls-1" d="M63.55,38a2,2,0,1,1-2.69,1,2,2,0,0,1,2.69-1"/><path class="cls-1" d="M63.72,38.29a2,2,0,1,1-2.71.92,2,2,0,0,1,2.71-.92"/><path class="cls-1" d="M63.89,38.56a2,2,0,1,1-2.73.81,2,2,0,0,1,2.73-.81"/><path class="cls-1" d="M64.06,38.83a2,2,0,1,1-2.76.7,2,2,0,0,1,2.76-.7"/><path class="cls-1" d="M64.24,39.1a2,2,0,1,1-2.79.58,2,2,0,0,1,2.79-.58"/><path class="cls-1" d="M64.41,39.38a2,2,0,1,1-2.81.46,2,2,0,0,1,2.81-.46"/><path class="cls-1" d="M64.58,39.65a2,2,0,1,1-2.84.35,2,2,0,0,1,2.84-.35"/><path class="cls-1" d="M64.76,39.93a2,2,0,1,1-2.87.23,2,2,0,0,1,2.87-.23"/><path class="cls-1" d="M64.93,40.2a2,2,0,1,1-2.89.12,2,2,0,0,1,2.89-.12"/><path class="cls-1" d="M65.1,40.48a2.06,2.06,0,1,1-2.91,0,2.06,2.06,0,0,1,2.91,0"/><path class="cls-1" d="M65.27,40.75a2.08,2.08,0,1,1-2.94-.11,2.08,2.08,0,0,1,2.94.11"/><path class="cls-1" d="M65.45,41a2.1,2.1,0,1,1-3-.23,2.11,2.11,0,0,1,3,.23"/><path class="cls-1" d="M65.62,41.3a2.13,2.13,0,1,1-3-.34,2.13,2.13,0,0,1,3,.34"/><path class="cls-1" d="M65.8,41.58a2.16,2.16,0,1,1-3-.46,2.16,2.16,0,0,1,3,.46"/><path class="cls-1" d="M66,41.85a2.19,2.19,0,1,1-3-.56,2.19,2.19,0,0,1,3,.56"/><path class="cls-1" d="M66.14,42.12a2.23,2.23,0,1,1-3.08-.68,2.22,2.22,0,0,1,3.08.68"/><path class="cls-1" d="M66.31,42.39a2.26,2.26,0,1,1-3.1-.79,2.26,2.26,0,0,1,3.1.79"/><path class="cls-1" d="M66.49,42.67a2.3,2.3,0,1,1-3.12-.91,2.31,2.31,0,0,1,3.12.91"/><path class="cls-1" d="M66.66,42.94a2.34,2.34,0,1,1-3.16-1,2.34,2.34,0,0,1,3.16,1"/><path class="cls-1" d="M66.84,43.22a2.39,2.39,0,1,1-3.18-1.14,2.39,2.39,0,0,1,3.18,1.14"/><path class="cls-1" d="M67,43.49a2.43,2.43,0,1,1-3.2-1.25A2.42,2.42,0,0,1,67,43.49"/><path class="cls-1" d="M67.18,43.77a2.48,2.48,0,1,1-3.23-1.37,2.48,2.48,0,0,1,3.23,1.37"/><path class="cls-1" d="M67.35,44a2.53,2.53,0,1,1-3.26-1.49A2.53,2.53,0,0,1,67.35,44"/><path class="cls-1" d="M67.52,44.32a2.58,2.58,0,1,1-3.28-1.6,2.57,2.57,0,0,1,3.28,1.6"/><path class="cls-1" d="M67.7,44.59a2.64,2.64,0,1,1-3.31-1.72,2.63,2.63,0,0,1,3.31,1.72"/><path class="cls-1" d="M67.87,44.87A2.69,2.69,0,1,1,64.54,43a2.69,2.69,0,0,1,3.34,1.83"/><path class="cls-1" d="M68,45.14a2.74,2.74,0,1,1-3.36-1.94A2.74,2.74,0,0,1,68,45.14"/><path class="cls-1" d="M68.22,45.41a2.8,2.8,0,1,1-3.38-2.06,2.8,2.8,0,0,1,3.38,2.06"/><path class="cls-1" d="M68.39,45.68A2.86,2.86,0,1,1,65,43.51a2.86,2.86,0,0,1,3.41,2.17"/><path class="cls-1" d="M68.56,46a2.92,2.92,0,1,1-3.44-2.28A2.92,2.92,0,0,1,68.56,46"/><path class="cls-1" d="M68.74,46.23a3,3,0,1,1-3.46-2.4,3,3,0,0,1,3.46,2.4"/><path class="cls-1" d="M68.91,46.51A3,3,0,1,1,65.42,44a3,3,0,0,1,3.49,2.52"/><path class="cls-1" d="M69.08,46.78a3.1,3.1,0,1,1-3.51-2.63,3.11,3.11,0,0,1,3.51,2.63"/><path class="cls-1" d="M69.25,47.06a3.17,3.17,0,1,1-3.54-2.75,3.17,3.17,0,0,1,3.54,2.75"/><path class="cls-1" d="M69.43,47.33a3.23,3.23,0,1,1-3.57-2.86,3.23,3.23,0,0,1,3.57,2.86"/><path class="cls-1" d="M69.6,47.61a3.3,3.3,0,1,1-3.59-3,3.3,3.3,0,0,1,3.59,3"/><path class="cls-1" d="M69.78,47.88a3.36,3.36,0,1,1-3.62-3.09,3.37,3.37,0,0,1,3.62,3.09"/><path class="cls-1" d="M70,48.16A3.43,3.43,0,1,1,66.3,45,3.44,3.44,0,0,1,70,48.16"/><path class="cls-1" d="M70.12,48.43a3.5,3.5,0,1,1-3.67-3.32,3.5,3.5,0,0,1,3.67,3.32"/><path class="cls-1" d="M70.29,48.7a3.57,3.57,0,1,1-3.7-3.43,3.56,3.56,0,0,1,3.7,3.43"/><path class="cls-1" d="M70.47,49a3.64,3.64,0,1,1-3.73-3.54A3.63,3.63,0,0,1,70.47,49"/><path class="cls-1" d="M70.64,49.25a3.71,3.71,0,1,1-3.75-3.66,3.71,3.71,0,0,1,3.75,3.66"/><path class="cls-1" d="M70.81,49.52A3.78,3.78,0,1,1,67,45.74a3.78,3.78,0,0,1,3.78,3.78"/></svg>